<svg width="149" height="88" viewBox="0 0 149 88" fill="none" xmlns="http://www.w3.org/2000/svg">
<path d="M75 4.5907C77.7344 4.9032 80.0391 5.13757 81.9141 5.29382C83.7891 5.37195 85.2734 5.45007 86.3672 5.5282C87.6953 5.60632 88.75 5.64539 89.5312 5.64539C90.8594 5.64539 92.3828 5.60632 94.1016 5.5282C95.5859 5.45007 97.3047 5.33289 99.2578 5.17664C101.289 4.94226 103.477 4.5907 105.82 4.12195C104.727 5.29382 103.828 6.42664 103.125 7.52039C102.422 8.53601 101.875 9.47351 101.484 10.3329C101.016 11.2704 100.625 12.1298 100.312 12.911C100 13.9266 99.6484 15.4891 99.2578 17.5985C98.8672 19.3954 98.4375 21.9344 97.9688 25.2157C97.5781 28.4969 97.0703 32.7938 96.4453 38.1063C99.1016 38.1844 101.406 38.2235 103.359 38.2235C105.312 38.1454 106.953 38.1063 108.281 38.1063H112.148C113.242 38.0282 114.492 37.9501 115.898 37.8719C118.242 37.7938 121.797 37.5594 126.562 37.1688C126.953 33.5751 127.148 30.4891 127.148 27.911C127.227 25.2548 127.188 23.0282 127.031 21.2313C126.875 19.2001 126.641 17.4813 126.328 16.0751C126.094 15.2938 125.742 14.3563 125.273 13.2626C124.883 12.3251 124.336 11.1923 123.633 9.86414C123.008 8.45789 122.148 6.7782 121.055 4.82507C123.086 5.13757 124.883 5.37195 126.445 5.5282C128.086 5.60632 129.453 5.68445 130.547 5.76257C131.797 5.8407 132.852 5.87976 133.711 5.87976C134.57 5.87976 135.703 5.8407 137.109 5.76257C138.281 5.68445 139.727 5.64539 141.445 5.64539C143.164 5.56726 145.273 5.45007 147.773 5.29382C147.148 6.38757 146.602 7.52039 146.133 8.69226C145.664 9.86414 145.273 10.9188 144.961 11.8563C144.648 12.9501 144.336 14.0438 144.023 15.1376C143.633 16.7782 143.281 19.161 142.969 22.286C142.734 25.411 142.5 28.8876 142.266 32.7157C142.109 36.5438 141.953 40.5282 141.797 44.6688C141.719 48.8094 141.641 52.7157 141.562 56.3876C141.562 60.0594 141.602 63.3407 141.68 66.2313C141.758 69.0438 141.914 71.036 142.148 72.2079C142.383 73.6141 142.773 75.0594 143.32 76.5438C143.789 77.8719 144.414 79.3173 145.195 80.8798C145.977 82.3641 146.992 83.7704 148.242 85.0985L120 87.2079C121.172 86.1141 122.109 85.0594 122.812 84.0438C123.516 82.9501 124.062 82.0126 124.453 81.2313C124.844 80.3719 125.117 79.5516 125.273 78.7704C125.352 77.8329 125.469 76.1923 125.625 73.8485C125.781 71.8954 125.938 69.1219 126.094 65.5282C126.25 61.9344 126.406 57.1688 126.562 51.2313C125.469 51.2313 124.141 51.2704 122.578 51.3485C121.094 51.3485 119.688 51.3876 118.359 51.4657C116.797 51.5438 115.156 51.5829 113.438 51.5829C111.719 51.661 109.922 51.7391 108.047 51.8173C106.484 51.9735 104.727 52.1298 102.773 52.286C100.898 52.3641 99.0234 52.4813 97.1484 52.6376C96.9922 55.9188 96.9922 58.8094 97.1484 61.3094C97.3047 63.7313 97.5391 65.8016 97.8516 67.5204C98.1641 69.5516 98.5547 71.3094 99.0234 72.7938C99.4922 74.2001 100 75.6063 100.547 77.0126C101.016 78.2626 101.562 79.5907 102.188 80.9969C102.891 82.4032 103.594 83.6532 104.297 84.7469C102.812 84.5907 101.445 84.4735 100.195 84.3954C98.9453 84.2391 97.8516 84.0829 96.9141 83.9266C95.8203 83.8485 94.7656 83.7704 93.75 83.6923C92.7344 83.6923 91.5234 83.6532 90.1172 83.5751C88.8672 83.4969 87.3047 83.4579 85.4297 83.4579C83.5547 83.3798 81.3672 83.3407 78.8672 83.3407C80.3516 81.8563 81.5234 80.411 82.3828 79.0048C83.3203 77.5204 83.9844 76.1923 84.375 75.0204C84.8438 73.6141 85.1562 72.3251 85.3125 71.1532C85.3906 70.1376 85.4297 68.2235 85.4297 65.411C85.5078 62.5985 85.5078 59.3954 85.4297 55.8016C85.4297 52.1298 85.3906 48.3016 85.3125 44.3173C85.2344 40.2548 85.1172 36.4657 84.9609 32.9501C84.8828 29.4344 84.7656 26.4266 84.6094 23.9266C84.5312 21.3485 84.4531 19.7469 84.375 19.1219C83.9844 17.7157 83.3984 16.1923 82.6172 14.5516C81.9141 13.2235 80.9766 11.7001 79.8047 9.98132C78.6328 8.18445 77.0312 6.38757 75 4.5907Z" fill="white"/>
<path d="M0 2.24694C2.5 2.63757 4.76562 2.98913 6.79688 3.30163C8.82812 3.53601 10.5859 3.73132 12.0703 3.88757C13.7891 4.12194 15.3125 4.31726 16.6406 4.47351C18.2812 4.70788 20.7422 4.43444 24.0234 3.65319C27.3047 2.79382 30.8984 2.01257 34.8047 1.30944C38.7891 0.528193 42.8516 0.0985054 46.9922 0.0203804C51.1328 -0.13587 54.9219 0.606318 58.3594 2.24694C61.7969 3.88757 64.6094 5.52819 66.7969 7.16882C68.9844 8.80944 70.7031 10.5673 71.9531 12.4423C73.2812 14.2391 74.2188 16.1532 74.7656 18.1844C75.3125 20.2157 75.625 22.4423 75.7031 24.8641C75.625 28.4579 74.7656 31.9344 73.125 35.2938C72.4219 36.7001 71.4844 38.1844 70.3125 39.7469C69.2188 41.2313 67.8516 42.6766 66.2109 44.0829C64.5703 45.4891 62.6172 46.8173 60.3516 48.0673C58.1641 49.3173 55.5859 50.411 52.6172 51.3485C55.5078 52.2079 57.8906 53.2235 59.7656 54.3954C61.7188 55.5673 63.2812 56.661 64.4531 57.6766C65.8594 58.9266 66.9141 60.1376 67.6172 61.3094C68.4766 62.9501 69.0625 64.3563 69.375 65.5282C69.6875 66.7001 69.8828 67.8329 69.9609 68.9266C70.1172 69.9423 70.3125 70.9969 70.5469 72.0907C70.7812 73.1844 71.2891 74.4344 72.0703 75.8407C72.6953 76.9344 73.4375 78.0673 74.2969 79.2391C75.0781 80.2548 75.9766 81.3485 76.9922 82.5204C78.0859 83.6923 79.4141 84.8251 80.9766 85.9188C78.7891 85.9969 76.7578 86.036 74.8828 86.036C73.0859 86.036 71.5234 86.036 70.1953 86.036C68.6328 86.036 67.1484 85.9969 65.7422 85.9188C64.3359 85.8407 62.5781 85.8016 60.4688 85.8016C58.6719 85.8016 56.3672 85.8016 53.5547 85.8016C50.8203 85.8016 47.5 85.8407 43.5938 85.9188C45.3125 84.5907 46.7188 83.2626 47.8125 81.9344C48.9062 80.6063 49.7656 79.3954 50.3906 78.3016C51.0938 77.0516 51.6016 75.8407 51.9141 74.6688C52.3047 72.5594 52.3438 70.3719 52.0312 68.1063C51.7969 66.1532 51.1719 64.0048 50.1562 61.661C49.1406 59.2391 47.5 56.8173 45.2344 54.3954C42.9688 54.786 41.0547 55.0985 39.4922 55.3329C38.0078 55.4891 36.7188 55.6454 35.625 55.8016C34.375 55.9579 33.3594 56.0751 32.5781 56.1532C31.875 56.2313 31.0938 56.3094 30.2344 56.3876C29.5312 56.4657 28.75 56.5829 27.8906 56.7391C27.1094 56.8173 26.3672 56.9344 25.6641 57.0907C25.5078 60.4501 25.5078 63.3798 25.6641 65.8798C25.8203 68.3016 26.0156 70.3329 26.25 71.9735C26.5625 73.9266 26.9141 75.6063 27.3047 77.0126C27.6953 78.4188 28.2422 79.786 28.9453 81.1141C29.4922 82.2079 30.1953 83.3798 31.0547 84.6298C31.9141 85.8016 32.8906 86.7782 33.9844 87.5594C31.9531 87.5594 30 87.5594 28.125 87.5594C26.3281 87.5594 24.6875 87.5204 23.2031 87.4423C21.4844 87.4423 19.8438 87.4032 18.2812 87.3251C16.7188 87.2469 14.9609 87.2079 13.0078 87.2079C11.3672 87.2079 9.41406 87.2079 7.14844 87.2079C4.96094 87.2079 2.57812 87.2469 0 87.3251C2.03125 85.2157 3.63281 83.4188 4.80469 81.9344C5.97656 80.4501 6.875 79.2001 7.5 78.1844C8.20312 77.0907 8.63281 76.1532 8.78906 75.3719C8.94531 74.1219 9.0625 71.8954 9.14062 68.6923C9.29688 65.411 9.41406 61.661 9.49219 57.4423C9.57031 53.2235 9.60938 48.8094 9.60938 44.2001C9.60938 39.5907 9.57031 35.2938 9.49219 31.3094C9.41406 27.2469 9.33594 23.7704 9.25781 20.8798C9.17969 17.9891 9.10156 16.1532 9.02344 15.3719C8.78906 13.9657 8.28125 12.5594 7.5 11.1532C6.875 9.90319 5.97656 8.49694 4.80469 6.93444C3.63281 5.37194 2.03125 3.80944 0 2.24694ZM44.2969 43.4969C45.0781 43.0282 45.7422 42.5594 46.2891 42.0907C46.8359 41.6219 47.3047 40.8798 47.6953 39.8641C48.0859 38.7704 48.3984 37.2469 48.6328 35.2938C48.9453 33.3407 49.2969 30.6844 49.6875 27.3251C50 23.9657 49.7656 21.1923 48.9844 19.0048C48.2812 16.8173 47.3047 15.0985 46.0547 13.8485C44.8828 12.5204 43.5547 11.6219 42.0703 11.1532C40.6641 10.6063 39.4141 10.3329 38.3203 10.3329C36.1328 10.3329 33.9844 10.9969 31.875 12.3251C29.7656 13.6532 28.1641 15.4501 27.0703 17.7157C26.6797 18.7313 26.3281 20.411 26.0156 22.7548C25.7812 24.786 25.625 27.5985 25.5469 31.1923C25.4688 34.786 25.5859 39.5126 25.8984 45.3719C28.8672 45.8407 31.4844 46.036 33.75 45.9579C36.0156 45.8016 37.9297 45.5282 39.4922 45.1376C41.3672 44.7469 42.9688 44.2001 44.2969 43.4969Z" fill="white"/>
</svg>
